<?xml version="1.0" encoding="UTF-8" standalone="no"?>
<!-- Created with Inkscape (http://www.inkscape.org/) -->

<svg
   xmlns:dc="http://purl.org/dc/elements/1.1/"
   xmlns:cc="http://creativecommons.org/ns#"
   xmlns:rdf="http://www.w3.org/1999/02/22-rdf-syntax-ns#"
   xmlns:svg="http://www.w3.org/2000/svg"
   xmlns="http://www.w3.org/2000/svg"
   xmlns:sodipodi="http://sodipodi.sourceforge.net/DTD/sodipodi-0.dtd"
   xmlns:inkscape="http://www.inkscape.org/namespaces/inkscape"
   width="120.87144"
   height="37.610779"
   viewBox="0 0 31.980569 9.9511849"
   version="1.1"
   id="svg36843"
   inkscape:version="0.92.0 r15299"
   sodipodi:docname="ares.svg">
  <defs
     id="defs36837">
    <clipPath
       id="clipPath36243"
       clipPathUnits="userSpaceOnUse">
      <path
         style="clip-rule:evenodd"
         inkscape:connector-curvature="0"
         id="path36241"
         d="M -1.321e-6,1.8311e-4 H 720 V 540.00018 H -1.321e-6 Z" />
    </clipPath>
    <clipPath
       id="clipPath36253"
       clipPathUnits="userSpaceOnUse">
      <path
         inkscape:connector-curvature="0"
         id="path36251"
         d="M 0,0 H 536.88 V 165.33 H 0 Z" />
    </clipPath>
  </defs>
  <sodipodi:namedview
     id="base"
     pagecolor="#ffffff"
     bordercolor="#666666"
     borderopacity="1.0"
     inkscape:pageopacity="0.0"
     inkscape:pageshadow="2"
     inkscape:zoom="6.6905008"
     inkscape:cx="59.935722"
     inkscape:cy="18.30539"
     inkscape:document-units="mm"
     inkscape:current-layer="layer1"
     showgrid="false"
     fit-margin-top="0"
     fit-margin-left="0"
     fit-margin-right="0"
     fit-margin-bottom="0"
     units="px"
     inkscape:window-width="1280"
     inkscape:window-height="744"
     inkscape:window-x="-4"
     inkscape:window-y="-4"
     inkscape:window-maximized="1" />
  <metadata
     id="metadata36840">
    <rdf:RDF>
      <cc:Work
         rdf:about="">
        <dc:format>image/svg+xml</dc:format>
        <dc:type
           rdf:resource="http://purl.org/dc/dcmitype/StillImage" />
        <dc:title></dc:title>
      </cc:Work>
    </rdf:RDF>
  </metadata>
  <g
     inkscape:label="Layer 1"
     inkscape:groupmode="layer"
     id="layer1"
     transform="translate(87.673471,59.807317)">
    <g
       id="g36237"
       transform="matrix(0.35277777,0,0,-0.35277777,-297.09132,122.72533)">
      <g
         id="g36239"
         clip-path="url(#clipPath36243)">
        <g
           id="g36245"
           transform="matrix(1.25,0,0,0.38351,594,489.49)">
          <g
             id="g36247"
             transform="scale(0.13411,0.43548)">
            <g
               id="g36249"
               clip-path="url(#clipPath36253)">
              <g
                 id="g36255">
                <g
                   id="g36257">
                  <g
                     id="g36259" />
                </g>
                <path
                   d="m 10.076,77.04 c 0,36.15 29.334,65.18 65.186,65.18 28.448,0 52.448,-18.07 61.328,-43.551 -7.4,30.221 -34.66,52.741 -67.254,52.741 C 31.114,151.41 0.002422,120.6 0.002422,82.077 0.002422,45.336 28.447,15.41 64.595,13.04 33.78,18.077 10.076,44.743 10.076,77.04 Z"
                   style="fill:#56a0d3;fill-opacity:1;fill-rule:nonzero;stroke:none"
                   id="path36261"
                   inkscape:connector-curvature="0" />
                <path
                   d="M 126.22,162.08 C 109.34,173.93 70.225,148.15 39.114,104.6 7.7061,60.743 -3.8494,15.41 13.039,3.5582 29.928,-8.59 69.039,17.188 100.15,61.04 c 31.11,43.85 42.96,88.89 26.07,101.04 z M 93.039,66.373 c -28.444,-40 -63.111,-64 -77.333,-53.926 -14.2221,10.074 -2.667,50.667 26.074,90.663 28.445,40 62.81,64.3 77.04,53.93 14.22,-10.07 2.66,-50.67 -25.781,-90.667 z"
                   style="fill:#56a0d3;fill-opacity:1;fill-rule:nonzero;stroke:none"
                   id="path36263"
                   inkscape:connector-curvature="0" />
                <path
                   d="m 69.632,151.71 c -38.518,0 -69.629578,-31.11 -69.629578,-69.633 0,-38.519 31.111578,-69.63 69.629578,-69.63 38.518,0 69.628,31.111 69.628,69.63 0,38.523 -31.11,69.633 -69.628,69.633 z M 73.188,16.003 c -34.667,0 -62.519,28.148 -62.519,62.518 0,34.669 27.852,62.519 62.519,62.519 34.372,0 62.522,-27.85 62.522,-62.519 0,-34.37 -28.15,-62.518 -62.522,-62.518 z"
                   style="fill:#56a0d3;fill-opacity:1;fill-rule:nonzero;stroke:none"
                   id="path36265"
                   inkscape:connector-curvature="0" />
                <path
                   d="m 213.63,134.22 c 2.08,5.34 2.67,6.23 3.56,6.23 1.18,0 1.78,-0.6 3.85,-5.93 2.37,-6.22 28.15,-73.777 38.22,-98.666 5.93,-14.814 10.67,-17.481 13.93,-18.37 2.66,-0.889 5.03,-0.889 6.52,-0.889 1.18,0 1.77,-0.296 1.77,-1.185 0,-0.889 -1.48,-1.185 -3.26,-1.185 -2.37,0 -14.51,0 -25.77,0.296 -3.26,0.296 -5.04,0.296 -5.04,1.185 0,0.593 0.59,0.889 1.18,1.186 1.19,0.296 2.08,1.777 1.19,4.444 -15.41,40.296 -15.41,40.296 -15.41,40.296 -0.29,0.593 -0.59,0.889 -1.48,0.889 -35.26,0 -35.26,0 -35.26,0 -0.89,0 -1.18,-0.296 -1.78,-1.185 -9.77,-29.037 -9.77,-29.037 -9.77,-29.037 -1.49,-4.148 -2.37,-8 -2.37,-10.963 0,-3.259 3.55,-4.741 6.51,-4.741 1.49,0 1.49,0 1.49,0 1.18,0 1.77,-0.296 1.77,-1.185 0,-0.889 -1.18,-1.185 -2.66,-1.185 -3.85,0 -10.97,0.592 -12.74,0.592 -1.78,0 -10.67,-0.592 -18.37,-0.592 -2.37,0 -3.26,0.296 -3.26,1.185 0,0.889 0.59,1.185 1.48,1.185 1.18,0 3.55,0 4.74,0.297 7.7,0.888 10.96,7.111 13.92,15.407 z m 17.19,-65.773 c 0.89,0 0.89,0.593 0.59,1.185 -15.7,44.448 -15.7,44.448 -15.7,44.448 -0.6,2.37 -1.49,2.37 -2.37,0 -14.52,-44.448 -14.52,-44.448 -14.52,-44.448 -0.3,-0.889 0,-1.185 0.59,-1.185 z"
                   style="fill:#0065a4;fill-opacity:1;fill-rule:nonzero;stroke:none"
                   id="path36267"
                   inkscape:connector-curvature="0" />
                <path
                   d="m 301.04,79.41 c 0,21.63 0,25.48 -0.3,29.93 -0.29,4.74 -1.18,7.11 -5.92,7.7 -1.19,0.3 -3.56,0.3 -4.74,0.3 -0.6,0 -1.19,0.88 -1.19,1.18 0,0.89 0.59,1.19 2.37,1.19 6.52,0 16,-0.3 16.89,-0.3 1.48,0 13.63,0.3 18.07,0.3 9.19,0 19.26,-0.89 26.97,-5.93 3.55,-2.67 10.07,-9.48 10.07,-19.259 0,-10.37 -4.44,-20.148 -17.78,-31.704 11.86,-14.814 21.63,-27.555 30.23,-36.148 7.7,-7.703 12.44,-9.185 16,-9.777 2.66,-0.297 4.14,-0.297 5.03,-0.297 0.89,0 1.48,-0.592 1.48,-1.185 0,-0.889 -0.88,-1.185 -3.55,-1.185 -9.19,0 -9.19,0 -9.19,0 -8,0 -11.55,0.889 -15.4,2.667 -6.23,3.555 -11.26,10.074 -19.56,20.74 -5.93,7.408 -12.44,16.593 -15.7,20.148 -0.6,0.889 -0.89,0.889 -1.78,0.889 -18.37,0.297 -18.37,0.297 -18.37,0.297 -0.59,0 -1.19,-0.297 -1.19,-1.186 0,-3.259 0,-3.259 0,-3.259 0,-13.333 0,-24.296 0.89,-29.926 0.3,-4.148 1.19,-6.815 5.63,-7.407 2.08,-0.296 5.04,-0.593 6.52,-0.593 0.89,0 1.19,-0.592 1.19,-1.185 0,-0.593 -0.89,-1.185 -2.37,-1.185 -8,0 -17.19,0.592 -17.78,0.592 -0.3,0 -9.78,-0.592 -14.22,-0.592 -1.49,0 -2.37,0.296 -2.37,1.185 0,0.593 0.29,1.185 1.18,1.185 1.19,0 2.96,0.297 4.44,0.593 2.67,0.592 2.97,3.259 3.86,7.407 0.59,5.63 0.59,16.593 0.59,30.222 z m 12.44,-11.852 c 0,-0.889 0.6,-1.185 1.19,-1.778 2.07,-1.185 9.48,-2.074 15.7,-2.074 3.56,0 7.41,0 10.97,2.371 5.03,3.259 8.59,10.666 8.59,21.333 0,17.48 -9.48,27.26 -24.89,27.26 -4.15,0 -8.89,-0.3 -10.37,-0.59 -0.59,-0.3 -1.19,-0.89 -1.19,-1.78 z"
                   style="fill:#0065a4;fill-opacity:1;fill-rule:nonzero;stroke:none"
                   id="path36269"
                   inkscape:connector-curvature="0" />
                <path
                   d="m 405.34,79.41 c 0,21.63 0,25.48 -0.3,29.93 -0.3,4.74 -1.19,7.11 -5.93,7.7 -1.18,0.3 -3.55,0.3 -5.03,0.3 -0.6,0 -1.19,0.88 -1.19,1.18 0,0.89 0.59,1.19 2.37,1.19 6.52,0 16,-0.3 16.59,-0.3 1.19,0 31.41,-0.3 34.67,0 2.67,0.3 5.33,0.59 6.52,0.89 0.59,0 1.18,0.59 2.07,0.59 0.3,0 0.6,-0.59 0.6,-1.18 0,-1.19 -0.89,-2.67 -1.19,-6.82 -0.3,-1.18 -0.59,-7.41 -0.89,-9.18 0,-0.6 -0.59,-1.49 -1.18,-1.49 -0.89,0 -1.19,0.89 -1.19,1.78 0,1.19 -0.29,3.56 -0.89,5.04 -0.89,2.37 -2.37,3.26 -10.37,4.15 -2.37,0.59 -19.26,0.59 -20.74,0.59 -0.59,0 -0.89,-0.59 -0.89,-1.48 0,-37.927 0,-37.927 0,-37.927 0,-0.889 0,-1.481 0.89,-1.481 1.78,0 20.74,0 24,0.296 3.56,0.296 5.63,0.592 7.11,2.074 0.89,0.889 1.78,1.778 2.08,1.778 0.59,0 0.89,-0.297 0.89,-1.186 0,-0.888 -0.89,-2.962 -1.19,-7.703 -0.3,-2.667 -0.59,-8 -0.59,-8.889 0,-1.185 -0.3,-2.667 -1.48,-2.667 -0.6,0 -0.89,0.593 -0.89,1.185 0,1.482 0,2.963 -0.6,4.741 -0.59,1.778 -1.77,3.556 -7.4,4.148 -3.85,0.593 -19.26,0.593 -21.93,0.593 -0.59,0 -0.89,-0.296 -0.89,-0.889 0,-11.556 0,-11.556 0,-11.556 0,-4.74 0,-21.037 0,-23.703 0.3,-9.482 2.97,-11.26 17.19,-11.26 3.85,0 10.66,0 14.52,1.482 3.85,1.481 5.63,4.148 6.51,9.778 0.3,1.481 0.6,2.074 1.49,2.074 0.89,0 0.89,-1.185 0.89,-2.074 0,-1.185 -0.89,-10.667 -1.78,-13.63 -1.19,-3.555 -2.67,-3.555 -8,-3.555 -10.97,0 -19.26,0.296 -25.19,0.592 -6.22,0.296 -9.78,0.296 -12.15,0.296 -0.29,0 -2.96,0 -6.22,-0.296 -2.66,0 -5.92,-0.296 -8.29,-0.296 -1.49,0 -2.37,0.296 -2.37,1.185 0,0.593 0.59,1.185 1.18,1.185 1.48,0 3.26,0.297 4.44,0.593 2.97,0.592 3.26,3.259 3.86,7.407 0.89,5.63 0.89,16.593 0.89,30.222 z"
                   style="fill:#0065a4;fill-opacity:1;fill-rule:nonzero;stroke:none"
                   id="path36271"
                   inkscape:connector-curvature="0" />
                <path
                   d="m 478.82,16.299 c -1.78,0.889 -2.08,1.481 -2.08,5.037 0,7.111 0.6,12.444 0.89,14.815 0,1.481 0.3,2.37 1.19,2.37 0.89,0 1.18,-0.592 1.18,-1.778 0,-0.889 0,-2.963 0.59,-5.037 2.38,-10.074 13.04,-13.629 22.82,-13.629 14.22,0 21.63,8 21.63,18.37 0,10.074 -5.33,14.815 -18.07,24.296 -6.82,5.037 -6.82,5.037 -6.82,5.037 -15.41,11.556 -20.44,20.149 -20.44,29.926 0,16.294 12.74,26.074 32,26.074 5.63,0 11.26,-0.59 14.81,-1.48 2.67,-0.59 3.85,-0.59 5.04,-0.59 1.18,0 1.48,-0.3 1.48,-1.19 0,-0.59 -0.59,-5.33 -0.59,-14.81 0,-2.08 -0.3,-2.97 -1.19,-2.97 -0.89,0 -1.18,0.6 -1.18,1.78 -0.3,1.48 -1.49,5.33 -2.37,6.82 -0.89,1.77 -5.63,6.81 -18.67,6.81 -10.37,0 -19.26,-5.04 -19.26,-14.81 0,-8.893 4.44,-14.226 18.96,-23.708 3.85,-2.963 3.85,-2.963 3.85,-2.963 17.78,-11.852 23.71,-21.629 23.71,-33.481 0,-8.296 -2.96,-17.185 -13.33,-23.704 -6.23,-4.148 -15.12,-5.037 -23.12,-5.037 -6.51,0 -15.11,0.889 -21.03,3.852 z"
                   style="fill:#0065a4;fill-opacity:1;fill-rule:nonzero;stroke:none"
                   id="path36273"
                   inkscape:connector-curvature="0" />
              </g>
            </g>
          </g>
        </g>
      </g>
    </g>
  </g>
</svg>
