<svg width="294" height="62" viewBox="0 0 147 31" fill="none" xmlns="http://www.w3.org/2000/svg">
<path d="M37.1414 17.9195H40.3931C41.3143 17.9195 42.0034 18.0718 42.4447 18.3606C42.8705 18.6413 43.0795 19.0743 43.0795 19.6678C43.0795 20.2613 42.8782 20.6703 42.4756 20.9349C42.0498 21.2076 41.3376 21.344 40.3543 21.344H37.1492V17.9195H37.1414ZM42.1505 15.9386C41.7711 16.1952 41.1518 16.3235 40.3156 16.3235H37.1337V13.3882H40.1376C41.0511 13.3882 41.7247 13.5085 42.1272 13.7411C42.5066 13.9576 42.6924 14.3025 42.6924 14.7917C42.6924 15.321 42.5143 15.698 42.1505 15.9466M43.0563 17.0453C43.4589 16.8608 43.784 16.6042 44.0163 16.2914C44.326 15.8744 44.4808 15.3531 44.4808 14.7356C44.4808 12.7948 43.0485 11.8003 40.215 11.8003H35.4072V22.9479H40.424C41.864 22.9479 42.9789 22.6672 43.7298 22.1139C44.504 21.5525 44.8911 20.7184 44.8911 19.6437C44.8911 18.4488 44.2718 17.5826 43.0563 17.0453Z" fill="#002858"/>
<path d="M52.325 11.8003H50.5811V22.9479H59.1166V21.3039H52.325V11.8003Z" fill="#002858"/>
<path d="M71.5441 18.5132C71.5441 19.5688 71.2771 20.3586 70.7587 20.8582C70.2325 21.3579 69.3999 21.6157 68.2768 21.6157C67.1536 21.6157 66.3211 21.3579 65.7949 20.8582C65.2686 20.3586 65.0095 19.5688 65.0095 18.5132V11.8003H63.2266V18.4648C63.2266 21.656 64.9309 23.2758 68.2846 23.2758C71.6384 23.2758 73.3427 21.656 73.3427 18.4648V11.8003H71.5598V18.5132H71.5441Z" fill="#002858"/>
<path d="M81.0913 18.0157H87.5631V16.3796H81.0913V13.4444H87.9009V11.8003H79.3486V22.9479H88.2003V21.3039H81.0913V18.0157Z" fill="#002858"/>
<path d="M128.781 20.3477L125.951 11.5324H124.156L121.341 20.3146L118.667 11.4746H116.652L120.392 22.9501H122.188L125.01 14.1266L127.817 22.9501H129.667L133.407 11.4746H131.455L128.781 20.3477Z" fill="#002858"/>
<path d="M140.261 21.2647V11.4746H138.465V22.9501H147V21.2647H140.261Z" fill="#002858"/>
<path d="M111.035 17.3844C111.035 18.7139 110.662 19.7597 109.933 20.4974C109.196 21.2432 108.164 21.6161 106.852 21.6161C105.541 21.6161 104.493 21.2432 103.764 20.5055C103.034 19.7678 102.669 18.722 102.669 17.3844C102.669 16.0468 103.042 15.0091 103.771 14.2714C104.509 13.5337 105.541 13.1527 106.852 13.1527C108.164 13.1527 109.211 13.5256 109.941 14.2633C110.67 15.001 111.035 16.0468 111.035 17.3844ZM109.972 12.1718C109.072 11.7097 108.024 11.4746 106.852 11.4746C105.68 11.4746 104.563 11.7259 103.663 12.2204C102.755 12.7149 102.049 13.4202 101.567 14.3039C101.086 15.1875 100.846 16.2252 100.846 17.3763C100.846 18.5275 101.102 19.6462 101.606 20.5379C102.111 21.4297 102.832 22.1187 103.733 22.5808C104.633 23.0429 105.68 23.278 106.852 23.278C108.024 23.278 109.134 23.0267 110.042 22.5322C110.95 22.0377 111.656 21.3324 112.137 20.4488C112.618 19.5651 112.859 18.5275 112.859 17.3763C112.859 16.2252 112.603 15.1064 112.098 14.2147C111.594 13.3229 110.872 12.6339 109.972 12.1637" fill="#002858"/>
<path d="M23.4795 10.0046C22.1598 12.9504 18.7663 14.2326 15.9227 12.8692C14.7837 12.3255 13.9039 11.4328 13.3383 10.3779L12.5528 12.1307C13.244 13.064 14.1552 13.8349 15.255 14.3624C16.2448 14.8331 17.2817 15.0603 18.3107 15.0603C19.2062 15.0603 20.0939 14.8899 20.9187 14.5572C20.5966 19.2559 19.0098 22.8833 16.1819 25.3422C13.8882 27.3386 11.0681 28.3205 8.49943 28.7831C13.3147 26.2187 15.8284 21.3983 17.1403 17.4137C16.614 17.3407 16.0877 17.219 15.5771 17.0485C13.8253 22.3153 10.966 25.8941 7.06191 27.6713C5.23948 28.499 3.57416 28.7425 2.50584 28.7993L11.2331 9.31479L12.4978 6.49882H14.1867C14.2652 6.49882 16.0877 6.49882 17.6509 8.38154L18.2714 9.12814L18.8763 8.36531C20.3609 6.49071 22.2462 6.49882 22.3248 6.50694H23.9194C24.1158 7.65118 23.9901 8.86845 23.4795 10.0046ZM18.3186 1.64596C19.1198 1.64596 19.9289 1.82449 20.7066 2.18967C21.9084 2.76585 22.8196 3.72344 23.3774 4.85956H22.3483C22.1205 4.85956 20.0624 4.87579 18.2479 6.65301C16.3862 4.88391 14.3909 4.85956 14.1631 4.85956H13.244C14.2417 2.83888 16.2369 1.64596 18.3186 1.64596ZM27.1872 4.85956H25.1212C24.4693 3.08234 23.1731 1.55669 21.3743 0.696481C17.7294 -1.04828 13.3854 0.599099 11.6965 4.36454L11.4766 4.85956H9.11215V6.50694H10.7382L0 30.4386L1.04475 30.609C1.18615 30.6333 2.443 30.82 4.28899 30.82C7.69034 30.82 13.1026 30.1708 17.1874 26.6163C20.573 23.6705 22.3797 19.3127 22.5526 13.6483C23.5423 12.9179 24.375 11.9198 24.9249 10.6944C25.5376 9.33913 25.7104 7.88652 25.5297 6.50694H27.1872V4.85956Z" fill="#002858"/>
</svg>