<svg xmlns="http://www.w3.org/2000/svg" viewBox="0 0 500 500" xmlns:bx="https://boxy-svg.com">
  <g id="Layer_1" transform="matrix(0.823185, 0, 0, 0.88544, 2.764132, 120.720833)">
    <path opacity="1.000000" stroke="none" d="M 132.888 96.273 C 136.363 102.285 139.732 108.072 143.049 113.887 C 143.829 115.256 144.761 116.766 143.674 118.331 C 142.536 119.969 140.764 119.781 139.028 119.532 C 134.177 118.837 134.256 118.872 132.937 123.681 C 128.374 140.316 117.932 150.695 100.743 154.014 C 90.726 155.948 82.986 161.219 78.13 170.377 C 76.78 172.922 76.053 175.626 76.016 178.686 C 77.731 179.347 79.543 179.227 81.311 179.349 C 83.022 179.466 84.38 180.099 85.137 181.722 C 85.931 183.422 85.376 184.928 84.142 186.052 C 77.6 192.009 71.136 198.065 64.352 203.734 C 60.935 206.589 56.377 205.453 54.106 201.604 C 50.071 194.762 46.2 187.824 42.288 180.91 C 41.559 179.622 40.836 178.259 41.873 176.778 C 42.945 175.246 44.532 175.213 46.159 175.409 C 47.059 175.517 47.957 175.674 48.841 175.876 C 50.881 176.342 51.923 175.534 52.595 173.547 C 58.427 156.288 70.131 145.87 88.135 142.052 C 100.326 139.466 108.266 131.64 111.634 119.49 C 112.66 115.789 112.069 115.121 108.181 115.059 C 106.164 115.027 103.886 115.466 102.851 113.07 C 101.794 110.627 103.364 109.002 104.959 107.458 C 110.504 102.089 116.036 96.708 121.588 91.346 C 125.522 87.547 127.794 87.847 130.696 92.532 C 131.414 93.689 132.075 94.881 132.888 96.273 Z" style="stroke-width: 1; fill: rgb(255, 255, 255);"/>
    <path opacity="1.000000" stroke="none" d="M 56.257 136.643 C 56.253 124.056 56.208 111.811 56.262 99.566 C 56.295 92.075 61.693 87.776 68.882 89.375 C 73.29 90.356 76.206 93.654 76.24 98.34 C 76.341 111.718 76.268 125.098 76.268 138.477 C 76.268 139.779 76.105 140.984 74.745 141.621 C 68.501 144.545 63.235 148.806 58.343 153.587 C 58.049 153.875 57.564 153.968 56.713 154.362 C 55.827 148.404 56.468 142.673 56.257 136.643 Z" style="stroke-width: 1; fill: rgb(255, 255, 255);"/>
    <path opacity="1.000000" stroke="none" d="M 129.473 161.185 C 129.464 168.682 129.574 175.841 129.42 182.995 C 129.266 190.12 123.678 194.171 117.165 192.1 C 113.479 190.928 111.514 188.247 111.251 184.557 C 110.629 175.829 110.821 167.082 111.129 158.343 C 111.169 157.2 111.404 156.104 112.628 155.498 C 118.197 152.744 122.901 148.848 127.195 144.41 C 127.485 144.11 127.965 143.992 128.853 143.534 C 130.052 149.468 129.199 155.191 129.473 161.185 Z" style="stroke-width: 1; fill: rgb(255, 255, 255);"/>
  </g>
  <text style="fill: rgb(255, 255, 255); font-family: 'Suisse Intl Trial'; font-size: 71px; white-space: pre; stroke-width: 1;" x="-15.938" y="104.168"><tspan x="114.554" y="289.719" style="font-size: 71px; word-spacing: 0px; stroke-width: 1;">ack</tspan><tspan style="fill: rgb(139, 115, 85); font-size: 71px; word-spacing: 0px; stroke-width: 1;">abacus</tspan></text>
</svg>
