<svg xmlns="http://www.w3.org/2000/svg" width="217.844" height="40.594" viewBox="0 0 217.844 40.594">
  <g transform="scale(0.8) translate(24.2, 4.05)">
    <g id="Group_381" data-name="Group 381" transform="translate(-132.145 -36.888)">
      <path id="Path_159" data-name="Path 159" d="M149.6,36.888a3.932,3.932,0,1,1-3.956,3.932A3.969,3.969,0,0,1,149.6,36.888Z" fill="#000"/>
      <g id="Group_95" data-name="Group 95">
        <path id="Path_160" data-name="Path 160" d="M208.648,58.679c-1.936-.837-5.214-1.706-5.214-3.94,0-1.3,1.155-1.893,2.592-1.893,2.934,0,5.9,2.172,5.9,2.172h.438l.312-4.064a17.651,17.651,0,0,0-6.306-1.055c-4.339,0-7.9,2.047-7.9,6.391,0,3.631,2.623,5.027,5.683,6.424,2.091.961,4.807,1.768,4.807,3.878,0,1.831-1.405,2.358-2.809,2.358-3.622,0-6.931-3.1-6.931-3.1h-.437l-.375,4.561a17.547,17.547,0,0,0,7.212,1.4c4.214,0,8.335-1.428,8.335-6.919C213.955,61.193,211.52,59.921,208.648,58.679Z" fill="#000"/>
        <path id="Path_161" data-name="Path 161" d="M237.28,74.566c-1.467-.993-2.778-2.948-3.933-3.817,3.465-1.489,6.181-4.591,6.181-9.9,0-7.2-4.839-10.922-10.646-10.922-5.557,0-11.582,3.041-11.582,10.953,0,7.2,4.839,10.921,10.646,10.921.312,0,.9-.031.9-.031a1.313,1.313,0,0,1,.874.186,14.7,14.7,0,0,1,1.624,2.11c1.748,2.3,2.965,3.413,5.556,3.413a4.35,4.35,0,0,0,2.841-.931V74.969a3.2,3.2,0,0,1-.749.093A2.871,2.871,0,0,1,237.28,74.566Zm-8.335-5.709c-3.4,0-5.9-3.444-5.9-8.905,0-4.375,1.811-7.075,4.839-7.075,3.4,0,5.9,3.444,5.9,8.906C233.783,66.158,231.973,68.857,228.945,68.857Z" fill="#000"/>
        <path id="Path_162" data-name="Path 162" d="M256.993,58.679v5.058a11.646,11.646,0,0,1-.125,1.4,3.632,3.632,0,0,1-3.746,3.475c-2.5,0-4.059-1.334-4.059-5V50.364h-5.557V64.543c0,4.469,2.435,7.23,8.9,7.23,5.308,0,9.022-2.575,9.022-7.757V50.364h-4.87A52.68,52.68,0,0,1,256.993,58.679Z" fill="#000"/>
        <path id="Path_163" data-name="Path 163" d="M271.337,50.364,263.5,71.37H268L269.807,66h7.9l1.841,5.368h5.963l-7.555-21.006Zm-.531,12.629,2.935-8.6,2.934,8.6Z" fill="#000"/>
        <path id="Path_164" data-name="Path 164" d="M306.275,55.763c0-5.244-6.026-5.74-10.333-5.74-2.529,0-5.308.217-7.275.341V71.37h5.526V52.909a10.293,10.293,0,0,1,2.248-.28c2.56,0,4.495,1.148,4.495,3.816,0,2.576-2.06,4.127-4.808,4.127v2.11l5.308,8.688h6.587l-7.243-9.432C303.933,61.131,306.275,58.928,306.275,55.763Z" fill="#000"/>
        <path id="Path_165" data-name="Path 165" d="M316.768,68.578V61.814h7.9V59.083h-7.9v-5.9h1.03a32.966,32.966,0,0,1,7.118.9V50.364h-13.7V71.37h14.2V67.584a29.606,29.606,0,0,1-7.087.994Z" fill="#000"/>
        <path id="Path_166" data-name="Path 166" d="M337.19,50.023c-2.5,0-5.463.186-7.43.341V71.37c1.748.093,4.183.217,6.337.217,7.305-.031,13.892-3.195,13.892-11.635C349.989,52.537,345.4,50.023,337.19,50.023Zm.562,18.864a7.2,7.2,0,0,1-2.467-.34V52.785a12.8,12.8,0,0,1,2.186-.156c3.965,0,6.462,2.482,6.462,8.1C343.933,65.879,342,68.887,337.752,68.887Z" fill="#000"/>
        <path id="Path_167" data-name="Path 167" d="M175.6,50.484l2.744,1.969V69.075L175.6,71.045v.4h11v-.361l-2.789-2.006V52.452l2.789-2.006v-.361h-11Z" fill="#000"/>
      </g>
      <path id="Path_168" data-name="Path 168" d="M144.9,47.951H132.145v25.4h9.3v-.1a3.939,3.939,0,0,1-1.5-3.992l3.552-18.87a3.907,3.907,0,0,1,1.406-2.249Z" fill="#000"/>
      <path id="Path_169" data-name="Path 169" d="M149.727,47.951v.191a3.938,3.938,0,0,1,1.4,3.913l-3.553,18.87a3.9,3.9,0,0,1-1.508,2.324v.1h13.47v-25.4Z" fill="#000"/>
    </g>
  </g>
</svg>
