<svg xmlns="http://www.w3.org/2000/svg" viewBox="0 0 738.25 205.66"><defs><style>.cls-1{fill:#005587;}</style></defs><title>Sixth Street_PRINT</title><g id="Logo_Base" data-name="Logo Base"><path class="cls-1" d="M150.91,32.86a79.81,79.81,0,0,0-9.36-6H54.12a69.82,69.82,0,0,0-8.26,6Z" transform="translate(-10.55 -15.78)"/><path class="cls-1" d="M127.93,20.89a97,97,0,0,0-31.6-5.11,84.67,84.67,0,0,0-30,5.11Z" transform="translate(-10.55 -15.78)"/><path class="cls-1" d="M154.07,44.84l4.11-5.64-.33-.35H39.54a77.5,77.5,0,0,0-5.08,6Z" transform="translate(-10.55 -15.78)"/><path class="cls-1" d="M138.06,66.82l2.92-4h-8.33c2.33,1.66,4.17,3.1,5.41,4" transform="translate(-10.55 -15.78)"/><path class="cls-1" d="M149.71,50.83H109.2a69.3,69.3,0,0,1,14,6h22.12Z" transform="translate(-10.55 -15.78)"/><path class="cls-1" d="M76.81,53.91a39.23,39.23,0,0,1,6.88-3.08H30.23q-1.86,2.89-3.56,6H72.4a42,42,0,0,1,4.41-2.91" transform="translate(-10.55 -15.78)"/><path class="cls-1" d="M61.35,68.79a52.11,52.11,0,0,1,4.57-6H23.61q-1.37,2.92-2.61,6Z" transform="translate(-10.55 -15.78)"/><path class="cls-1" d="M55.22,80.77q1.19-3,2.68-6H18.74c-.15.45-.32.89-.47,1.35q-.78,2.31-1.47,4.64Z" transform="translate(-10.55 -15.78)"/><path class="cls-1" d="M118,92.74a74.19,74.19,0,0,0-42.56,0Z" transform="translate(-10.55 -15.78)"/><path class="cls-1" d="M51.52,92.74c.45-1.91,1-3.92,1.61-6h-38c-.5,2-1,4-1.38,6Z" transform="translate(-10.55 -15.78)"/><path class="cls-1" d="M142.3,104.72a67.8,67.8,0,0,0-9.51-6H61.3a50.47,50.47,0,0,0-8.54,6Z" transform="translate(-10.55 -15.78)"/><path class="cls-1" d="M49.49,104.72c.16-1.6.42-3.64.82-6H12.65q-.49,3-.87,6Z" transform="translate(-10.55 -15.78)"/><path class="cls-1" d="M64.41,182.57H21.73c1,1.78,2.25,3.81,3.74,6H75.13a39.23,39.23,0,0,1-10.72-6" transform="translate(-10.55 -15.78)"/><path class="cls-1" d="M35.44,200.53H146.5a61.89,61.89,0,0,0,5.23-6H30a78,78,0,0,0,5.47,6" transform="translate(-10.55 -15.78)"/><path class="cls-1" d="M51.06,158.61H13.91c.41,2,.85,4,1.31,6H52.16a33,33,0,0,1-1.1-6" transform="translate(-10.55 -15.78)"/><path class="cls-1" d="M54.51,170.59H16.79c.47,1.68,1,3.32,1.48,4.92,0,0,.15.38.45,1.07H58.37a35.35,35.35,0,0,1-3.86-6" transform="translate(-10.55 -15.78)"/><path class="cls-1" d="M52.18,146.64H11.94c.26,2,.56,4,.88,6H51.07a33,33,0,0,1,1.11-6" transform="translate(-10.55 -15.78)"/><path class="cls-1" d="M149.09,110.71H11.15c-.17,2-.31,4-.4,6H154.11a53.3,53.3,0,0,0-5-6" transform="translate(-10.55 -15.78)"/><path class="cls-1" d="M58.41,134.66H10.83q.18,3,.45,6H54.55a34.74,34.74,0,0,1,3.86-6" transform="translate(-10.55 -15.78)"/><path class="cls-1" d="M75.3,122.68H10.56c0,2,0,4,0,6h53.9a39.51,39.51,0,0,1,10.81-6" transform="translate(-10.55 -15.78)"/><path class="cls-1" d="M51.28,212.46H130a67.07,67.07,0,0,0,9.61-5.94H42.28a71.19,71.19,0,0,0,9,5.94" transform="translate(-10.55 -15.78)"/><path class="cls-1" d="M120.71,176.58h40.61c.05-.16.1-.32.16-.47.53-1.61,1.06-3.47,1.54-5.52H124.56a35.29,35.29,0,0,1-3.85,6" transform="translate(-10.55 -15.78)"/><path class="cls-1" d="M126.91,164.6h37.26c.28-1.9.52-3.9.67-6H128a33,33,0,0,1-1.1,6" transform="translate(-10.55 -15.78)"/><path class="cls-1" d="M128,152.63h37.06c0-2-.09-4-.26-6H126.89a33,33,0,0,1,1.11,6" transform="translate(-10.55 -15.78)"/><path class="cls-1" d="M124.53,140.65H164c-.35-2-.79-4-1.35-6h-42a35.4,35.4,0,0,1,3.87,6" transform="translate(-10.55 -15.78)"/><path class="cls-1" d="M87.32,221.44a108.48,108.48,0,0,0,26.36-3H65.63a77,77,0,0,0,21.69,3" transform="translate(-10.55 -15.78)"/><path class="cls-1" d="M103.94,188.55h51.83a61,61,0,0,0,3.15-6H114.67a39.43,39.43,0,0,1-10.73,6" transform="translate(-10.55 -15.78)"/><path class="cls-1" d="M103.77,122.68a39.71,39.71,0,0,1,10.82,6h46.08a55.67,55.67,0,0,0-2.79-6Z" transform="translate(-10.55 -15.78)"/><rect class="cls-1" x="181.49" y="1.91" width="2.77" height="202.03"/></g><g id="Outlined_text" data-name="Outlined text"><path class="cls-1" d="M223.43,93.44l11.28-13.52c7.81,6.45,16,10.54,25.91,10.54,7.82,0,12.53-3.1,12.53-8.18V82c0-4.83-3-7.31-17.49-11-17.48-4.47-28.76-9.3-28.76-26.54v-.25c0-15.74,12.64-26.16,30.38-26.16a50.22,50.22,0,0,1,32.23,11l-9.92,14.38c-7.68-5.33-15.25-8.55-22.56-8.55s-11.16,3.34-11.16,7.56v.25c0,5.7,3.72,7.56,18.72,11.4,17.61,4.59,27.53,10.92,27.53,26v.25c0,17.24-13.15,26.91-31.87,26.91A55.21,55.21,0,0,1,223.43,93.44Z" transform="translate(-10.55 -15.78)"/><path class="cls-1" d="M310.72,19.29h19.1v86.8h-19.1Z" transform="translate(-10.55 -15.78)"/><path class="cls-1" d="M378.8,62l-29-42.66H372.1l18.1,28.15,18.48-28.15h21.7l-29,42.41,30.26,44.39H409.3L389.83,76.33l-19.59,29.76h-21.7Z" transform="translate(-10.55 -15.78)"/><path class="cls-1" d="M466.09,36.9H439.68V19.29H511.6V36.9H485.19v69.19h-19.1Z" transform="translate(-10.55 -15.78)"/><path class="cls-1" d="M531.07,19.29h19.09V53.64h35.22V19.29h19.09v86.8H585.38V71.25H550.16v34.84H531.07Z" transform="translate(-10.55 -15.78)"/><path class="cls-1" d="M223.43,205.33l11.28-13.51c7.81,6.44,16,10.54,25.91,10.54,7.82,0,12.53-3.1,12.53-8.19v-.25c0-4.83-3-7.31-17.49-11-17.48-4.46-28.76-9.3-28.76-26.54v-.24c0-15.75,12.64-26.17,30.38-26.17a50.22,50.22,0,0,1,32.23,11l-9.92,14.38c-7.68-5.33-15.25-8.55-22.56-8.55s-11.16,3.35-11.16,7.56v.25c0,5.7,3.72,7.56,18.72,11.41,17.61,4.58,27.53,10.91,27.53,26v.24c0,17.24-13.15,26.91-31.87,26.91A55.21,55.21,0,0,1,223.43,205.33Z" transform="translate(-10.55 -15.78)"/><path class="cls-1" d="M326,148.79H299.56V131.18h71.92v17.61H345.07V218H326Z" transform="translate(-10.55 -15.78)"/><path class="cls-1" d="M386.11,131.18h39.68c11,0,19.59,3.1,25.29,8.81,4.84,4.83,7.44,11.65,7.44,19.84v.24c0,14-7.56,22.82-18.59,26.91l21.2,31H438.81l-18.6-27.77h-15V218h-19.1Zm38.44,42.16c9.3,0,14.63-5,14.63-12.27v-.25c0-8.18-5.7-12.4-15-12.4h-19v24.92Z" transform="translate(-10.55 -15.78)"/><path class="cls-1" d="M478.24,131.18h65.47v17H497.22v17.61h40.91v17H497.22V201h47.11v17H478.24Z" transform="translate(-10.55 -15.78)"/><path class="cls-1" d="M566.28,131.18h65.47v17h-46.5v17.61h40.92v17H585.25V201h47.12v17H566.28Z" transform="translate(-10.55 -15.78)"/><path class="cls-1" d="M674.41,148.79H648V131.18h71.92v17.61H693.5V218H674.41Z" transform="translate(-10.55 -15.78)"/><path class="cls-1" d="M732.9,132.92h-2.85V131.3h7.47v1.62h-2.85v7.62H732.9Zm6.6-1.62h1.89l2.79,4.38L747,131.3h1.83v9.24h-1.71V134l-2.85,4.44h-.18L741.21,134v6.57H739.5Z" transform="translate(-10.55 -15.78)"/></g></svg>